<svg width="44" height="44" viewBox="0 0 44 44" fill="none" xmlns="http://www.w3.org/2000/svg">
<path d="M27.3914 26.5029C27.3914 22.2487 28.1239 18.269 29.5889 14.5637C31.0538 10.8585 32.8084 7.75361 34.8525 5.24912C36.9307 2.71033 38.8556 0.960624 40.6272 0H40.7294L43.8978 3.13918V4.37427C42.2284 5.71228 40.6612 7.82222 39.1963 10.7041C37.7654 13.5517 37.0499 17.0854 37.0499 21.3053C37.0499 22.8491 37.2373 24.2214 37.6121 25.4222C37.9868 26.5887 38.4297 27.5665 38.9408 28.3556C39.4518 29.1446 40.1332 30.071 40.9849 31.1345C42.007 32.301 42.7565 33.3474 43.2335 34.2737C43.7445 35.2 44 36.315 44 37.6187C44 39.6086 43.4379 41.1696 42.3136 42.3018C41.1893 43.4339 39.7414 44 37.9698 44H37.9187C36.0108 44 34.2393 43.1766 32.604 41.5298C31.0027 39.883 29.7251 37.7216 28.7712 35.0456C27.8513 32.3353 27.3914 29.4877 27.3914 26.5029ZM0 26.5029C0 22.2487 0.732482 18.269 2.19744 14.5637C3.66241 10.8585 5.41696 7.75361 7.46109 5.24912C9.5393 2.71033 11.4642 0.960624 13.2358 0H13.338L16.5064 3.13918V4.37427C14.837 5.71228 13.2698 7.82222 11.8049 10.7041C10.374 13.5517 9.65854 17.0854 9.65854 21.3053C9.65854 22.8491 9.84592 24.2214 10.2207 25.4222C10.5954 26.5887 11.0383 27.5665 11.5494 28.3556C12.0604 29.1446 12.7418 30.071 13.5935 31.1345C14.6156 32.301 15.3651 33.3474 15.842 34.2737C16.3531 35.2 16.6086 36.315 16.6086 37.6187C16.6086 39.6086 16.0465 41.1696 14.9222 42.3018C13.7979 43.4339 12.35 44 10.5784 44H10.5273C8.61944 44 6.84785 43.1766 5.21254 41.5298C3.6113 39.883 2.33372 37.7216 1.37979 35.0456C0.45993 32.3353 0 29.4877 0 26.5029Z" fill="#FECC00"/>
</svg>
