<svg width="19" height="20" viewBox="0 0 19 20" fill="none" xmlns="http://www.w3.org/2000/svg">
<path d="M9.5 0C10.7598 0 11.968 0.506496 12.8588 1.40806C13.7496 2.30963 14.25 3.53242 14.25 4.80743C14.25 6.08245 13.7496 7.30523 12.8588 8.2068C11.968 9.10837 10.7598 9.61487 9.5 9.61487C8.24022 9.61487 7.03204 9.10837 6.14124 8.2068C5.25044 7.30523 4.75 6.08245 4.75 4.80743C4.75 3.53242 5.25044 2.30963 6.14124 1.40806C7.03204 0.506496 8.24022 0 9.5 0ZM9.5 12.0186C14.7487 12.0186 19 14.1699 19 16.826V19.2297H0V16.826C0 14.1699 4.25125 12.0186 9.5 12.0186Z" fill="#FE0000"/>
</svg>
