<svg width="31" height="17" viewBox="0 0 31 17" fill="none" xmlns="http://www.w3.org/2000/svg">
<path d="M4.11299 9.66861C3.99549 9.38467 3.97615 9.09957 4.05496 8.8133C4.1366 8.52023 4.26828 8.24591 4.44999 7.99034C4.6317 7.73477 4.88327 7.41646 5.2047 7.03543C5.45943 6.73837 5.66014 6.49466 5.80684 6.30431C5.95154 6.10915 6.07342 5.90652 6.17249 5.69642C6.27637 5.48433 6.32955 5.27913 6.33203 5.08082L6.24839 4.87869C6.0245 4.35131 5.68786 3.89877 5.23845 3.52108C4.78904 3.14339 4.25135 2.90651 3.62538 2.81044C3.00223 2.70757 2.34175 2.80052 1.64393 3.0893C1.33593 3.21676 1.03847 3.3765 0.751544 3.56851L0.107544 2.72741C0.163467 2.63099 0.360945 2.48162 0.699977 2.27932C1.04183 2.07021 1.39082 1.89197 1.74695 1.74459C2.70464 1.34827 3.5704 1.19291 4.34424 1.27852C5.12089 1.35732 5.76952 1.6103 6.29012 2.03744C6.81072 2.46458 7.19948 2.98856 7.45639 3.60938C7.6436 4.06176 7.70261 4.51082 7.63342 4.95657C7.56423 5.40231 7.42982 5.81305 7.2302 6.18877C7.02858 6.55967 6.75709 6.99331 6.41575 7.48968C6.15804 7.86126 5.9638 8.16147 5.83304 8.39032C5.70709 8.61718 5.62744 8.83333 5.59409 9.03878C5.60554 9.10732 5.64512 9.2234 5.71284 9.38703C5.9563 9.93449 6.24391 10.4524 6.57566 10.9408L5.74004 11.5572C5.59035 11.4951 5.4068 11.3512 5.1894 11.1255C4.97 10.895 4.75907 10.6441 4.5566 10.3728C4.35695 10.0947 4.20908 9.85995 4.11299 9.66861ZM7.28417 12.9389C7.35038 12.8946 7.41958 12.8575 7.49177 12.8276C7.70834 12.738 7.9137 12.7235 8.10787 12.7841C8.30203 12.8446 8.4674 12.965 8.60399 13.1452C8.6483 13.2115 8.68539 13.2807 8.71526 13.3528C8.81086 13.5838 8.81311 13.814 8.72201 14.0434C8.62892 14.2679 8.47002 14.4492 8.24533 14.5873C8.19073 14.6324 8.12253 14.6719 8.04071 14.7058C7.84821 14.7854 7.64866 14.8004 7.44205 14.7506C7.23344 14.696 7.05985 14.5762 6.92128 14.3912C6.88377 14.3278 6.85805 14.2792 6.84411 14.2455C6.74652 14.0097 6.7427 13.7689 6.83264 13.5232C6.92058 13.2726 7.07109 13.0778 7.28417 12.9389Z" fill="#251111"/>
<path d="M11.4233 8.23931C11.5114 7.94495 11.6765 7.71166 11.9184 7.53946C12.1667 7.36376 12.4421 7.2342 12.7443 7.15077C13.0466 7.06734 13.4427 6.97939 13.9325 6.88691C14.3176 6.81741 14.6272 6.75519 14.8611 6.70022C15.0966 6.64026 15.319 6.56011 15.5285 6.45976C15.743 6.3609 15.9138 6.23536 16.0409 6.08316L16.1037 5.87361C16.2631 5.3233 16.2879 4.75982 16.1779 4.18317C16.0679 3.60652 15.8006 3.08331 15.3759 2.61354C14.9576 2.14028 14.3868 1.79528 13.6633 1.57856C13.344 1.4829 13.0125 1.41892 12.6688 1.38663L12.7005 0.32777C12.8048 0.288319 13.0522 0.297202 13.4429 0.354421C13.84 0.408145 14.2231 0.490309 14.5924 0.600915C15.5852 0.898354 16.3546 1.32459 16.9006 1.87962C17.4531 2.43115 17.7963 3.03689 17.9302 3.69684C18.0642 4.35679 18.0348 5.00858 17.8419 5.65219C17.7014 6.12118 17.4636 6.50665 17.1285 6.80859C16.7934 7.11054 16.4298 7.34415 16.0378 7.50943C15.6472 7.66971 15.1629 7.83453 14.5847 8.00387C14.1503 8.12925 13.8101 8.23938 13.5642 8.33426C13.3233 8.43064 13.125 8.54795 12.9694 8.6862C12.935 8.74657 12.8924 8.86158 12.8416 9.03121C12.6847 9.60946 12.5806 10.1927 12.5295 10.7809L11.4923 10.7311C11.4154 10.5885 11.364 10.361 11.3379 10.0487C11.3133 9.73147 11.3082 9.40371 11.3226 9.06548C11.3434 8.72374 11.3769 8.44836 11.4233 8.23931ZM11.8171 12.7776C11.8965 12.7851 11.9735 12.8 12.0484 12.8224C12.2729 12.8897 12.4413 13.0081 12.5536 13.1777C12.6659 13.3472 12.7181 13.545 12.7102 13.771C12.7028 13.8503 12.6878 13.9274 12.6654 14.0023C12.5937 14.2417 12.4501 14.4216 12.2346 14.5419C12.0206 14.6573 11.783 14.6975 11.5215 14.6627C11.4507 14.6632 11.3729 14.6508 11.288 14.6254C11.0885 14.5656 10.9243 14.4512 10.7955 14.2821C10.6683 14.108 10.6093 13.9055 10.6187 13.6745C10.6296 13.6017 10.6403 13.5478 10.6508 13.5129C10.724 13.2684 10.8731 13.0793 11.0981 12.9455C11.3245 12.8067 11.5642 12.7508 11.8171 12.7776Z" fill="#FE0000"/>
<path d="M20.3511 9.28456C20.6334 9.16318 20.9182 9.13993 21.2055 9.21481C21.4997 9.29243 21.7758 9.42033 22.0338 9.59852C22.2919 9.77671 22.6136 10.0239 22.999 10.3401C23.2995 10.5907 23.546 10.7881 23.7383 10.9321C23.9354 11.0741 24.1397 11.1932 24.3511 11.2894C24.5646 11.3904 24.7705 11.4407 24.9689 11.4405L25.1698 11.3541C25.6941 11.123 26.142 10.7802 26.5135 10.3256C26.885 9.8711 27.1145 9.33021 27.2019 8.70298C27.2963 8.07848 27.1943 7.41934 26.8959 6.72554C26.7643 6.41932 26.6005 6.12407 26.4045 5.83981L27.2367 5.18434C27.3339 5.23893 27.486 5.43435 27.6929 5.77057C27.9067 6.10953 28.0897 6.45604 28.2419 6.81012C28.6513 7.76229 28.8186 8.62584 28.7436 9.40077C28.6754 10.1784 28.4314 10.8305 28.0114 11.3569C27.5914 11.8833 27.0728 12.2792 26.4556 12.5446C26.0058 12.738 25.5576 12.8031 25.111 12.7401C24.6643 12.677 24.2518 12.5482 23.8733 12.3538C23.4997 12.1573 23.0624 11.8917 22.5614 11.5572C22.1863 11.3046 21.8835 11.1145 21.6528 10.9869C21.4243 10.8641 21.2071 10.7874 21.0012 10.7569C20.9328 10.7693 20.8173 10.8104 20.6546 10.8804C20.1105 11.1313 19.5966 11.426 19.1128 11.7644L18.485 10.9373C18.545 10.7868 18.6864 10.6013 18.909 10.3808C19.1365 10.1583 19.3845 9.94395 19.653 9.73778C19.9284 9.53434 20.1611 9.38326 20.3511 9.28456ZM17.1246 12.5003C17.1698 12.5659 17.2078 12.6346 17.2387 12.7063C17.3313 12.9216 17.3486 13.1268 17.2907 13.3218C17.2328 13.5167 17.1147 13.6838 16.9364 13.8228C16.8708 13.868 16.8021 13.906 16.7303 13.9369C16.5006 14.0357 16.2705 14.0411 16.0399 13.9531C15.8141 13.8631 15.6307 13.7067 15.4895 13.4839C15.4436 13.43 15.4032 13.3623 15.3682 13.281C15.2859 13.0896 15.2683 12.8902 15.3152 12.683C15.3669 12.4736 15.4844 12.2984 15.6675 12.1573C15.7303 12.1189 15.7785 12.0926 15.812 12.0782C16.0465 11.9774 16.2872 11.9702 16.5342 12.0568C16.786 12.1413 16.9827 12.2891 17.1246 12.5003Z" fill="white"/>
</svg>
