<svg width="24" height="24" viewBox="0 0 24 24" fill="none" xmlns="http://www.w3.org/2000/svg">
<path d="M17.7102 6.15C17.4602 5.38 16.7902 5.21 16.4502 4.77C16.1402 4.31 16.1802 3.62 15.5302 3.15C14.8802 2.68 14.2302 2.92 13.7002 2.77C13.1702 2.62 12.8102 2 12.0002 2C11.1902 2 10.8202 2.58 10.3002 2.77C9.78017 2.96 9.13017 2.67 8.47017 3.15C7.81017 3.63 7.86017 4.31 7.55017 4.77C7.21017 5.21 6.55017 5.38 6.29017 6.15C6.03017 6.92 6.50017 7.45 6.50017 8C6.50017 8.55 6.00017 9.08 6.29017 9.85C6.58017 10.62 7.21017 10.79 7.55017 11.23C7.86017 11.69 7.82017 12.38 8.47017 12.85C9.12017 13.32 9.77017 13.08 10.3002 13.23C10.8302 13.38 11.1902 14 12.0002 14C12.8102 14 13.1802 13.42 13.7002 13.23C14.2202 13.04 14.8702 13.33 15.5302 12.85C16.1902 12.37 16.1402 11.69 16.4502 11.23C16.7902 10.79 17.4502 10.62 17.7102 9.85C17.9702 9.08 17.5002 8.55 17.5002 8C17.5002 7.45 18.0002 6.92 17.7102 6.15ZM12.0002 12C11.209 12 10.4357 11.7654 9.77789 11.3259C9.12009 10.8864 8.6074 10.2616 8.30465 9.53073C8.0019 8.79983 7.92269 7.99556 8.07703 7.21964C8.23137 6.44371 8.61233 5.73098 9.17174 5.17157C9.73115 4.61216 10.4439 4.2312 11.2198 4.07686C11.9957 3.92252 12.8 4.00173 13.5309 4.30448C14.2618 4.60723 14.8865 5.11992 15.326 5.77772C15.7656 6.43552 16.0002 7.20887 16.0002 8C16.0002 9.06087 15.5787 10.0783 14.8286 10.8284C14.0785 11.5786 13.061 12 12.0002 12ZM14.0002 8C14.0002 8.39556 13.8829 8.78224 13.6631 9.11114C13.4433 9.44004 13.131 9.69638 12.7655 9.84776C12.4001 9.99913 11.998 10.0387 11.61 9.96157C11.222 9.8844 10.8657 9.69392 10.586 9.41421C10.3063 9.13451 10.1158 8.77814 10.0386 8.39018C9.96143 8.00222 10.001 7.60009 10.1524 7.23463C10.3038 6.86918 10.5601 6.55682 10.889 6.33706C11.2179 6.1173 11.6046 6 12.0002 6C12.5306 6 13.0393 6.21071 13.4144 6.58579C13.7895 6.96086 14.0002 7.46957 14.0002 8ZM13.7102 15.56L13.0802 19.16L12.3502 23.29L9.74017 20.8L6.44017 22.25L7.77017 14.75C8.35627 15.0427 9.00528 15.1869 9.66017 15.17C10.0617 15.4763 10.5158 15.7068 11.0002 15.85C11.3239 15.9508 11.6611 16.0014 12.0002 16C12.5984 16.0019 13.1871 15.8504 13.7102 15.56ZM17.9202 18.78L15.3402 17.86L15.8502 14.92C16.1546 14.8137 16.4411 14.662 16.7002 14.47L16.8202 14.37L17.9202 18.78Z" fill="#FE0000"/>
</svg>
