<svg width="24" height="24" viewBox="0 0 24 24" fill="none" xmlns="http://www.w3.org/2000/svg">
<path d="M2.29982 20.28L11.8998 10.68L10.4998 9.26L9.77982 9.97C9.68731 10.0627 9.57742 10.1363 9.45645 10.1864C9.33547 10.2366 9.20579 10.2624 9.07482 10.2624C8.94386 10.2624 8.81417 10.2366 8.6932 10.1864C8.57223 10.1363 8.46234 10.0627 8.36982 9.97L7.65982 9.26C7.56712 9.16749 7.49357 9.0576 7.44339 8.93663C7.39321 8.81565 7.36738 8.68597 7.36738 8.555C7.36738 8.42403 7.39321 8.29435 7.44339 8.17338C7.49357 8.0524 7.56712 7.94251 7.65982 7.85L13.3198 2.19C13.4123 2.0973 13.5222 2.02375 13.6432 1.97357C13.7642 1.92339 13.8939 1.89756 14.0248 1.89756C14.1558 1.89756 14.2855 1.92339 14.4064 1.97357C14.5274 2.02375 14.6373 2.0973 14.7298 2.19L15.4398 2.9C15.8298 3.29 15.8298 3.92 15.4398 4.31L14.7298 5L16.1498 6.43C16.2423 6.3373 16.3522 6.26375 16.4732 6.21357C16.5942 6.16339 16.7239 6.13756 16.8548 6.13756C16.9858 6.13756 17.1155 6.16339 17.2364 6.21357C17.3574 6.26375 17.4673 6.3373 17.5598 6.43C17.9498 6.82 17.9498 7.46 17.5598 7.85L18.9698 9.26L19.6798 8.55C20.0698 8.16 20.7098 8.16 21.0998 8.55L21.7998 9.26C22.1898 9.65 22.1898 10.29 21.7998 10.68L16.1498 16.33C15.7598 16.72 15.1198 16.72 14.7298 16.33L14.0298 15.63C13.9349 15.5377 13.8594 15.4274 13.8079 15.3054C13.7563 15.1835 13.7298 15.0524 13.7298 14.92C13.7298 14.7876 13.7563 14.6565 13.8079 14.5346C13.8594 14.4126 13.9349 14.3023 14.0298 14.21L14.7298 13.5L13.3198 12.09L3.70982 21.7C3.61731 21.7927 3.50742 21.8663 3.38645 21.9164C3.26548 21.9666 3.13579 21.9924 3.00482 21.9924C2.87386 21.9924 2.74417 21.9666 2.6232 21.9164C2.50223 21.8663 2.39234 21.7927 2.29982 21.7C1.90982 21.31 1.90982 20.67 2.29982 20.28ZM19.9998 19C20.5303 19 21.039 19.2107 21.414 19.5858C21.7891 19.9609 21.9998 20.4696 21.9998 21V22H11.9998V21C11.9998 20.4696 12.2105 19.9609 12.5856 19.5858C12.9607 19.2107 13.4694 19 13.9998 19H19.9998Z" fill="#FE0000"/>
</svg>
